<?xml version="1.0" encoding="utf-8"?>
<svg version="1.0" width="500.000000pt" height="500.000000pt" viewBox="0 0 500.000000 500.000000" preserveAspectRatio="xMidYMid meet" xmlns="http://www.w3.org/2000/svg">
  <defs/>
  <g transform="matrix(0.1, 0, 0, -0.1, -14.926655, 510.079315)" fill="#ffffff" stroke="none">
    <path d="M1560 4720 c-270 -7 -292 -11 -395 -62 -73 -37 -218 -180 -258 -254&#10;-55 -105 -60 -148 -61 -519 l-1 -339 75 -43 c41 -23 78 -42 83 -43 4 0 7 166&#10;7 368 0 241 4 389 12 427 24 121 147 247 274 280 50 13 177 15 890 15 749 0&#10;832 -2 838 -16 3 -9 6 -120 6 -247 0 -317 15 -395 91 -482 54 -62 93 -73 285&#10;-85 93 -5 226 -10 297 -10 l127 0 1 -162 c3 -305 -2 -1562 -7 -1873 -4 -286&#10;-6 -314 -26 -365 -38 -98 -123 -197 -205 -238 -94 -47 -89 -47 -1103 -45&#10;-1012 3 -1149 6 -1220 30 -65 22 -184 106 -224 159 -19 25 -47 82 -63 127 -27&#10;79 -28 89 -28 278 l0 196 -65 31 c-36 17 -69 27 -73 23 -15 -15 -29 -207 -24&#10;-336 4 -82 13 -159 26 -208 55 -212 195 -362 408 -439 78 -27 331 -33 1433&#10;-33 845 0 845 0 910 22 195 66 353 233 394 414 16 71 30 956 29 1909 0 602 2&#10;585 -92 702 -109 135 -571 625 -656 695 -27 23 -79 56 -115 74 -60 30 -76 33&#10;-200 40 -200 12 -1077 18 -1370 9z m1688 -358 c10 -10 60 -65 112 -122 52 -58&#10;141 -153 197 -211 57 -58 103 -109 103 -114 0 -12 -332 0 -360 14 -42 21 -62&#10;58 -70 134 -12 104 -17 317 -8 317 4 0 16 -8 26 -18z" style=""/>
    <path d="M418 3453 c-74 -19 -103 -460 -45 -683 36 -137 92 -274 145 -355 74&#10;-111 241 -277 337 -335 155 -93 225 -122 319 -127 51 -4 104 -1 132 6 l48 12&#10;95 -99 c110 -113 180 -167 341 -262 132 -78 226 -120 270 -120 42 0 72 32 68&#10;73 -3 30 -12 36 -158 115 -221 119 -321 199 -435 347 l-56 74 22 68 c57 181&#10;27 399 -87 628 -61 124 -192 276 -316 370 -88 66 -342 188 -512 245 -82 27&#10;-149 49 -150 49 0 -1 -8 -3 -18 -6z m163 -192 c46 -17 111 -37 144 -47 66 -18&#10;226 -99 292 -148 23 -17 61 -44 84 -61 106 -76 242 -292 279 -443 24 -98 32&#10;-312 11 -312 -4 0 -40 42 -79 93 -38 50 -109 137 -157 192 -47 55 -119 141&#10;-160 190 -91 113 -219 235 -244 235 -24 0 -61 -45 -61 -73 0 -21 29 -64 89&#10;-132 20 -23 64 -72 98 -110 33 -39 83 -97 110 -129 26 -32 84 -102 128 -155&#10;113 -135 171 -219 159 -231 -5 -5 -34 -14 -63 -20 -127 -24 -283 38 -422 169&#10;-95 89 -155 172 -222 306 -88 176 -113 298 -103 515 6 146 12 190 26 190 4 0&#10;45 -13 91 -29z" style=""/>
    <path d="M3426 2244 c-21 -7 -109 -25 -195 -38 -243 -39 -376 -86 -487 -174&#10;-83 -66 -174 -201 -206 -307 -5 -16 -13 -75 -17 -129 l-8 -100 -102 -98 c-57&#10;-54 -101 -104 -98 -111 12 -37 122 -31 211 13 53 25 59 25 104 -5 66 -43 120&#10;-58 222 -59 108 -1 159 13 285 77 141 72 265 217 333 388 65 163 83 252 84&#10;417 1 130 -3 142 -50 141 -20 0 -54 -7 -76 -15z m14 -167 c0 -94 -46 -267 -98&#10;-372 -73 -147 -202 -274 -331 -325 -108 -42 -264 -35 -311 15 l-22 24 28 27&#10;c16 14 79 60 139 100 257 173 345 242 345 270 0 24 -29 74 -43 74 -18 0 -262&#10;-159 -473 -309 -19 -13 -36 -22 -38 -20 -3 2 3 42 13 89 29 149 99 246 244&#10;341 83 54 162 77 341 98 86 10 160 21 163 25 3 3 15 6 25 6 15 0 18 -8 18 -43z" style=""/>
  </g>
</svg>